<svg width="116" height="122" viewBox="0 0 116 122" fill="none" xmlns="http://www.w3.org/2000/svg">
<path d="M71.0704 94.7832L38.2803 76.8973C34.2209 80.927 28.6303 83.4167 22.4583 83.4167C10.0549 83.4167 0 73.3617 0 60.9583C0 48.5549 10.0549 38.5 22.4583 38.5C28.6299 38.5 34.2201 40.9894 38.2795 45.0189L71.0704 27.1332C70.7514 25.6252 70.5833 24.0614 70.5833 22.4583C70.5833 10.0549 80.6382 0 93.0417 0C105.445 0 115.5 10.0549 115.5 22.4583C115.5 34.8617 105.445 44.9167 93.0417 44.9167C86.8695 44.9167 81.2793 42.4271 77.2201 38.3973L44.4293 56.2825C44.7487 57.7911 44.9167 59.3548 44.9167 60.9583C44.9167 62.5612 44.7487 64.125 44.4295 65.6329L77.2201 83.5193C81.2799 79.4897 86.8701 77 93.0417 77C105.445 77 115.5 87.0549 115.5 99.4583C115.5 111.862 105.445 121.917 93.0417 121.917C80.6382 121.917 70.5833 111.862 70.5833 99.4583C70.5833 97.8554 70.7514 96.2911 71.0704 94.7832Z" fill="#F43F3F"/>
</svg>
