<svg width="513" height="479" viewBox="0 0 513 479" fill="none" xmlns="http://www.w3.org/2000/svg">
<g filter="url(#filter0_f_104_103)">
<path d="M451.331 389.06C432.476 408.538 367.614 433.143 340.182 427.536C312.751 421.929 290.685 387.131 286.744 355.416C282.803 323.701 295.676 260.49 316.535 237.245C337.394 214 389.102 203.709 411.898 215.946C434.695 228.183 446.74 281.816 453.312 310.669" fill="url(#paint0_linear_104_103)"/>
</g>
<g filter="url(#filter1_f_104_103)">
<path d="M320.6 319.989C295.946 346.614 230.231 353.365 193.845 342.004C157.458 330.642 110.315 289.52 102.282 251.822C94.249 214.123 118.916 139.181 145.647 115.814C172.377 92.4456 229.979 100.541 262.665 111.614C295.352 122.687 332.109 147.523 341.765 182.253" fill="url(#paint1_linear_104_103)"/>
</g>
<defs>
<filter id="filter0_f_104_103" x="236.037" y="160.75" width="276.06" height="317.597" filterUnits="userSpaceOnUse" color-interpolation-filters="sRGB">
<feFlood flood-opacity="0" result="BackgroundImageFix"/>
<feBlend mode="normal" in="SourceGraphic" in2="BackgroundImageFix" result="shape"/>
<feGaussianBlur stdDeviation="25" result="effect1_foregroundBlur_104_103"/>
</filter>
<filter id="filter1_f_104_103" x="0.739746" y="0.757812" width="445.372" height="446.537" filterUnits="userSpaceOnUse" color-interpolation-filters="sRGB">
<feFlood flood-opacity="0" result="BackgroundImageFix"/>
<feBlend mode="normal" in="SourceGraphic" in2="BackgroundImageFix" result="shape"/>
<feGaussianBlur stdDeviation="50" result="effect1_foregroundBlur_104_103"/>
</filter>
<linearGradient id="paint0_linear_104_103" x1="344.142" y1="217.611" x2="389.739" y2="421.576" gradientUnits="userSpaceOnUse">
<stop stop-color="#80FFB5"/>
<stop offset="1" stop-color="#80CAFF"/>
</linearGradient>
<linearGradient id="paint1_linear_104_103" x1="195.501" y1="98.1618" x2="251.352" y2="347.995" gradientUnits="userSpaceOnUse">
<stop stop-color="#80FFFB"/>
<stop offset="1" stop-color="#8084FF"/>
</linearGradient>
</defs>
</svg>
