<svg width="132" height="40" viewBox="0 0 132 40" fill="none" xmlns="http://www.w3.org/2000/svg">
<circle cx="20" cy="20" r="16" fill="black"/>
<path d="M15.1814 26.9776H13V14.3804H21.7474V16.3494H15.1814V19.4372H20.1986V21.2943H15.1814V26.9776Z" fill="white"/>
<path d="M23.5063 27V19.3924H22.2847V17.7814H23.5063V16.2823C23.5063 15.4768 23.6808 14.895 24.0299 14.537C24.3934 14.179 24.9315 14 25.6441 14H28V15.7676H25.7313V17.7814H27.9346V19.3924H25.7313V27H23.5063Z" fill="white"/>
<path d="M50.125 27H47.625V12.925H57.65V15.125H50.125V18.575H55.875V20.65H50.125V27ZM62.6393 27.25C61.4726 27.25 60.5059 27.025 59.7393 26.575C58.9726 26.125 58.3976 25.5083 58.0143 24.725C57.6309 23.925 57.4393 23.0167 57.4393 22C57.4226 20.4667 57.8476 19.2083 58.7143 18.225C59.5976 17.225 60.9059 16.725 62.6393 16.725C64.3226 16.725 65.5976 17.2083 66.4643 18.175C67.3476 19.1417 67.7893 20.4167 67.7893 22C67.7893 22.9833 67.6059 23.875 67.2393 24.675C66.8726 25.475 66.3059 26.1083 65.5393 26.575C64.7726 27.025 63.8059 27.25 62.6393 27.25ZM62.6393 25.1C63.3726 25.1 63.9309 24.9417 64.3143 24.625C64.7143 24.3083 64.9809 23.9083 65.1143 23.425C65.2476 22.925 65.3143 22.425 65.3143 21.925C65.3143 21.4083 65.2476 20.9 65.1143 20.4C64.9809 19.9 64.7143 19.4917 64.3143 19.175C63.9309 18.8583 63.3726 18.7 62.6393 18.7C61.8893 18.7 61.3143 18.8667 60.9143 19.2C60.5309 19.5167 60.2643 19.925 60.1143 20.425C59.9809 20.9083 59.9143 21.4083 59.9143 21.925C59.9143 22.425 59.9809 22.925 60.1143 23.425C60.2643 23.9083 60.5309 24.3083 60.9143 24.625C61.3143 24.9417 61.8893 25.1 62.6393 25.1ZM69.8563 27V12.925H72.3563V27H69.8563ZM76.1885 15.6C75.6385 15.6167 75.2718 15.4917 75.0885 15.225C74.9218 14.9417 74.8385 14.6083 74.8385 14.225C74.8385 13.8583 74.9301 13.5417 75.1135 13.275C75.2968 13.0083 75.6551 12.875 76.1885 12.875C76.7051 12.875 77.0468 13.0083 77.2135 13.275C77.3968 13.5417 77.4885 13.8583 77.4885 14.225C77.4885 14.6083 77.3968 14.9333 77.2135 15.2C77.0468 15.45 76.7051 15.5833 76.1885 15.6ZM74.8885 27V16.725H77.4385V27H74.8885ZM84.5143 27.25C83.3476 27.25 82.3809 27.025 81.6143 26.575C80.8476 26.125 80.2726 25.5083 79.8893 24.725C79.5059 23.925 79.3143 23.0167 79.3143 22C79.2976 20.4667 79.7226 19.2083 80.5893 18.225C81.4726 17.225 82.7809 16.725 84.5143 16.725C86.1976 16.725 87.4726 17.2083 88.3393 18.175C89.2226 19.1417 89.6643 20.4167 89.6643 22C89.6643 22.9833 89.4809 23.875 89.1143 24.675C88.7476 25.475 88.1809 26.1083 87.4143 26.575C86.6476 27.025 85.6809 27.25 84.5143 27.25ZM84.5143 25.1C85.2476 25.1 85.8059 24.9417 86.1893 24.625C86.5893 24.3083 86.8559 23.9083 86.9893 23.425C87.1226 22.925 87.1893 22.425 87.1893 21.925C87.1893 21.4083 87.1226 20.9 86.9893 20.4C86.8559 19.9 86.5893 19.4917 86.1893 19.175C85.8059 18.8583 85.2476 18.7 84.5143 18.7C83.7643 18.7 83.1893 18.8667 82.7893 19.2C82.4059 19.5167 82.1393 19.925 81.9893 20.425C81.8559 20.9083 81.7893 21.4083 81.7893 21.925C81.7893 22.425 81.8559 22.925 81.9893 23.425C82.1393 23.9083 82.4059 24.3083 82.7893 24.625C83.1893 24.9417 83.7643 25.1 84.5143 25.1ZM94.6563 27H92.1563V12.925H102.181V15.125H94.6563V18.575H100.406V20.65H94.6563V27ZM103.572 27V12.925H106.072V27H103.572ZM113.004 27.25C111.821 27.25 110.854 27 110.104 26.5C109.371 25.9833 108.821 25.3333 108.454 24.55C108.104 23.75 107.921 22.9083 107.904 22.025C107.888 20.9917 108.079 20.075 108.479 19.275C108.896 18.4583 109.479 17.825 110.229 17.375C110.996 16.9083 111.896 16.675 112.929 16.675C113.846 16.675 114.663 16.875 115.379 17.275C116.113 17.675 116.696 18.2417 117.129 18.975C117.563 19.6917 117.788 20.5417 117.804 21.525C117.804 21.5583 117.804 21.65 117.804 21.8C117.804 21.95 117.804 22.075 117.804 22.175H110.329C110.329 23.125 110.563 23.8583 111.029 24.375C111.496 24.875 112.138 25.125 112.954 25.125C113.588 25.125 114.113 24.9667 114.529 24.65C114.963 24.3333 115.221 23.9167 115.304 23.4H117.779C117.663 24.4833 117.196 25.4 116.379 26.15C115.563 26.8833 114.438 27.25 113.004 27.25ZM110.404 21.025H115.254C115.238 20.9083 115.196 20.725 115.129 20.475C115.079 20.225 114.971 19.9667 114.804 19.7C114.654 19.4333 114.421 19.2083 114.104 19.025C113.788 18.8417 113.379 18.75 112.879 18.75C112.213 18.75 111.704 18.8917 111.354 19.175C111.021 19.4417 110.779 19.7583 110.629 20.125C110.496 20.475 110.421 20.775 110.404 21.025ZM118.827 27L122.577 21.7L119.027 16.725H121.827L124.177 20.225L126.527 16.725H129.352L125.802 21.7L129.577 27H126.777L124.177 23.225L121.627 27H118.827Z" fill="black"/>
</svg>
