<svg width="132" height="40" viewBox="0 0 132 40" fill="none" xmlns="http://www.w3.org/2000/svg">
<path d="M34 20C34 29.3888 26.3888 37 17 37C7.61116 37 0 29.3888 0 20C0 10.6112 7.61116 3 17 3C26.3888 3 34 10.6112 34 20Z" fill="white"/>
<path d="M10.9286 25.7274H8.90476V14.3333H17.0202V16.1143H10.9286V18.9071H15.5833V20.5869H10.9286V25.7274Z" fill="black"/>
<path d="M19.2869 25.6869V18.806H18.1536V17.3488H19.2869V15.9929C19.2869 15.2643 19.4488 14.7381 19.7726 14.4143C20.1099 14.0905 20.6091 13.9286 21.2702 13.9286H23.456V15.5274H21.3512V17.3488H23.3952V18.806H21.3512V25.6869H19.2869Z" fill="black"/>
<path d="M52.125 27H49.625V12.925H59.65V15.125H52.125V18.575H57.875V20.65H52.125V27ZM64.6393 27.25C63.4726 27.25 62.5059 27.025 61.7393 26.575C60.9726 26.125 60.3976 25.5083 60.0143 24.725C59.6309 23.925 59.4393 23.0167 59.4393 22C59.4226 20.4667 59.8476 19.2083 60.7143 18.225C61.5976 17.225 62.9059 16.725 64.6393 16.725C66.3226 16.725 67.5976 17.2083 68.4643 18.175C69.3476 19.1417 69.7893 20.4167 69.7893 22C69.7893 22.9833 69.6059 23.875 69.2393 24.675C68.8726 25.475 68.3059 26.1083 67.5393 26.575C66.7726 27.025 65.8059 27.25 64.6393 27.25ZM64.6393 25.1C65.3726 25.1 65.9309 24.9417 66.3143 24.625C66.7143 24.3083 66.9809 23.9083 67.1143 23.425C67.2476 22.925 67.3143 22.425 67.3143 21.925C67.3143 21.4083 67.2476 20.9 67.1143 20.4C66.9809 19.9 66.7143 19.4917 66.3143 19.175C65.9309 18.8583 65.3726 18.7 64.6393 18.7C63.8893 18.7 63.3143 18.8667 62.9143 19.2C62.5309 19.5167 62.2643 19.925 62.1143 20.425C61.9809 20.9083 61.9143 21.4083 61.9143 21.925C61.9143 22.425 61.9809 22.925 62.1143 23.425C62.2643 23.9083 62.5309 24.3083 62.9143 24.625C63.3143 24.9417 63.8893 25.1 64.6393 25.1ZM71.8563 27V12.925H74.3563V27H71.8563ZM78.1885 15.6C77.6385 15.6167 77.2718 15.4917 77.0885 15.225C76.9218 14.9417 76.8385 14.6083 76.8385 14.225C76.8385 13.8583 76.9301 13.5417 77.1135 13.275C77.2968 13.0083 77.6551 12.875 78.1885 12.875C78.7051 12.875 79.0468 13.0083 79.2135 13.275C79.3968 13.5417 79.4885 13.8583 79.4885 14.225C79.4885 14.6083 79.3968 14.9333 79.2135 15.2C79.0468 15.45 78.7051 15.5833 78.1885 15.6ZM76.8885 27V16.725H79.4385V27H76.8885ZM86.5143 27.25C85.3476 27.25 84.3809 27.025 83.6143 26.575C82.8476 26.125 82.2726 25.5083 81.8893 24.725C81.5059 23.925 81.3143 23.0167 81.3143 22C81.2976 20.4667 81.7226 19.2083 82.5893 18.225C83.4726 17.225 84.7809 16.725 86.5143 16.725C88.1976 16.725 89.4726 17.2083 90.3393 18.175C91.2226 19.1417 91.6643 20.4167 91.6643 22C91.6643 22.9833 91.4809 23.875 91.1143 24.675C90.7476 25.475 90.1809 26.1083 89.4143 26.575C88.6476 27.025 87.6809 27.25 86.5143 27.25ZM86.5143 25.1C87.2476 25.1 87.8059 24.9417 88.1893 24.625C88.5893 24.3083 88.8559 23.9083 88.9893 23.425C89.1226 22.925 89.1893 22.425 89.1893 21.925C89.1893 21.4083 89.1226 20.9 88.9893 20.4C88.8559 19.9 88.5893 19.4917 88.1893 19.175C87.8059 18.8583 87.2476 18.7 86.5143 18.7C85.7643 18.7 85.1893 18.8667 84.7893 19.2C84.4059 19.5167 84.1393 19.925 83.9893 20.425C83.8559 20.9083 83.7893 21.4083 83.7893 21.925C83.7893 22.425 83.8559 22.925 83.9893 23.425C84.1393 23.9083 84.4059 24.3083 84.7893 24.625C85.1893 24.9417 85.7643 25.1 86.5143 25.1ZM96.6563 27H94.1563V12.925H104.181V15.125H96.6563V18.575H102.406V20.65H96.6563V27ZM105.572 27V12.925H108.072V27H105.572ZM115.004 27.25C113.821 27.25 112.854 27 112.104 26.5C111.371 25.9833 110.821 25.3333 110.454 24.55C110.104 23.75 109.921 22.9083 109.904 22.025C109.888 20.9917 110.079 20.075 110.479 19.275C110.896 18.4583 111.479 17.825 112.229 17.375C112.996 16.9083 113.896 16.675 114.929 16.675C115.846 16.675 116.663 16.875 117.379 17.275C118.113 17.675 118.696 18.2417 119.129 18.975C119.563 19.6917 119.788 20.5417 119.804 21.525C119.804 21.5583 119.804 21.65 119.804 21.8C119.804 21.95 119.804 22.075 119.804 22.175H112.329C112.329 23.125 112.563 23.8583 113.029 24.375C113.496 24.875 114.138 25.125 114.954 25.125C115.588 25.125 116.113 24.9667 116.529 24.65C116.963 24.3333 117.221 23.9167 117.304 23.4H119.779C119.663 24.4833 119.196 25.4 118.379 26.15C117.563 26.8833 116.438 27.25 115.004 27.25ZM112.404 21.025H117.254C117.238 20.9083 117.196 20.725 117.129 20.475C117.079 20.225 116.971 19.9667 116.804 19.7C116.654 19.4333 116.421 19.2083 116.104 19.025C115.788 18.8417 115.379 18.75 114.879 18.75C114.213 18.75 113.704 18.8917 113.354 19.175C113.021 19.4417 112.779 19.7583 112.629 20.125C112.496 20.475 112.421 20.775 112.404 21.025ZM120.827 27L124.577 21.7L121.027 16.725H123.827L126.177 20.225L128.527 16.725H131.352L127.802 21.7L131.577 27H128.777L126.177 23.225L123.627 27H120.827Z" fill="white"/>
</svg>
