<svg width="152" height="179" viewBox="0 0 152 179" fill="none" xmlns="http://www.w3.org/2000/svg">
<g opacity="0.2" clip-path="url(#clip0_112_104)">
<path d="M126.279 85.2352C125.326 84.6161 124.225 84.2661 123.092 84.222C121.959 84.1779 120.836 84.4414 119.841 84.9847L80.3135 106.709L84.1992 61.6762C84.3013 60.5409 84.093 59.3985 83.5966 58.3715C83.1002 57.3445 82.3344 56.4718 81.3815 55.8468C80.4285 55.2219 79.3243 54.8683 78.1873 54.8242C77.0504 54.78 75.9236 55.0468 74.9278 55.5961L35.4053 77.3012L39.2888 32.2732C39.3596 31.4517 39.2682 30.624 39.0198 29.8372C38.7714 29.0504 38.3709 28.32 37.8412 27.6876C37.3115 27.0553 36.6629 26.5335 35.9324 26.1519C35.202 25.7703 34.4041 25.5365 33.5841 25.4637C32.7642 25.3909 31.9384 25.4807 31.1538 25.7279C30.3692 25.975 29.6412 26.3747 29.0114 26.9041C27.7394 27.9734 26.9445 29.5061 26.8016 31.1652L21.8961 87.9033C21.7953 89.0382 22.0046 90.1798 22.5013 91.206C22.9981 92.2321 23.7637 93.1042 24.7162 93.7289C25.6687 94.3535 26.7722 94.7072 27.9086 94.752C29.045 94.7969 30.1715 94.5312 31.1674 93.9834L70.6836 72.2635L66.8 117.291C66.6993 118.426 66.9085 119.568 67.4053 120.594C67.902 121.62 68.6677 122.492 69.6202 123.117C70.5726 123.742 71.6762 124.095 72.8125 124.14C73.9489 124.185 75.0754 123.919 76.0713 123.372L115.61 101.664L111.741 146.685C111.668 147.508 111.758 148.338 112.005 149.126C112.253 149.915 112.653 150.647 113.182 151.281C113.712 151.915 114.362 152.439 115.093 152.821C115.825 153.204 116.624 153.438 117.446 153.511C118.267 153.583 119.094 153.493 119.88 153.245C120.666 152.996 121.394 152.595 122.024 152.063C122.654 151.532 123.173 150.881 123.551 150.147C123.929 149.414 124.159 148.613 124.227 147.79L129.115 91.0415C129.21 89.9083 128.997 88.7698 128.497 87.7472C127.998 86.7247 127.231 85.8565 126.279 85.2352V85.2352Z" fill="#ED8F8F"/>
</g>
<defs>
<clipPath id="clip0_112_104">
<rect width="98.6405" height="152.313" fill="white" transform="translate(0 39.1736) rotate(-23.3992)"/>
</clipPath>
</defs>
</svg>
