<svg width="310" height="240" viewBox="0 0 310 240" fill="none" xmlns="http://www.w3.org/2000/svg">
<path opacity="0.2" d="M309.879 55.8956C309.798 55.5992 309.659 55.3212 309.471 55.0773L270.14 5.10914C269.95 4.86526 269.713 4.66079 269.443 4.50749C269.174 4.35418 268.876 4.25505 268.567 4.21579L238.685 0.477638C238.059 0.401324 237.428 0.572835 236.931 0.954801L1.73972 181.761C1.49306 181.949 1.2866 182.184 1.13225 182.451C0.977905 182.719 0.878736 183.014 0.840467 183.32C0.802198 183.626 0.825588 183.936 0.909288 184.233C0.992988 184.531 1.13534 184.809 1.32812 185.052L40.6272 235.026C40.6659 235.055 40.7028 235.087 40.7378 235.12C40.8781 235.276 41.0398 235.412 41.2182 235.524L41.4169 235.65C41.6624 235.786 41.9321 235.875 42.2111 235.911L72.1036 239.65C72.4173 239.691 72.736 239.669 73.0407 239.585C73.3361 239.503 73.613 239.367 73.8567 239.183L208.264 135.855L225.048 122.952L309.048 58.3762C309.414 58.0894 309.687 57.7023 309.833 57.2629C309.978 56.8235 309.99 56.3511 309.867 55.9043L309.879 55.8956ZM290.118 66.9724L266.849 64.0615L278.347 55.2222L301.585 58.1293L290.118 66.9724ZM273.308 79.9126L250.07 77.0055L261.579 68.1575L284.808 71.0633L273.308 79.9126ZM256.503 92.823L233.275 89.9172L244.773 81.0779L268.011 83.9849L256.503 92.823ZM239.706 105.745L216.478 102.839L227.977 93.9895L251.206 96.8953L239.706 105.745ZM222.914 118.636L199.675 115.729L211.183 106.891L234.412 109.797L222.914 118.636ZM206.108 131.547L182.88 128.641L194.378 119.802L217.657 122.714L206.108 131.547ZM189.312 144.468L166.083 141.563L177.613 132.717L200.841 135.623L189.312 144.468ZM172.486 157.376L149.278 154.473L160.791 145.595L184.019 148.501L172.486 157.376ZM155.681 170.287L132.442 167.38L143.94 158.54L167.179 161.447L155.681 170.287ZM138.911 183.242L115.672 180.335L127.182 171.487L150.41 174.392L138.911 183.242ZM122.115 196.153L98.8769 193.246L110.375 184.407L133.613 187.314L122.115 196.153ZM105.309 209.074L82.0803 206.168L93.5796 197.319L116.818 200.226L105.309 209.074ZM88.5135 221.985L65.2749 219.078L76.7831 210.24L100.012 213.146L88.5135 221.985ZM278.96 50.564L269.964 39.1609L293.192 42.0667L302.169 53.4672L278.96 50.564ZM289.092 36.8187L265.863 33.9129L256.888 22.5024L280.126 25.4094L289.092 36.8187ZM275.996 20.1577L252.757 17.2507L243.791 5.85135L267.019 8.75713L275.996 20.1577ZM237.941 6.09887L249.576 20.8911L262.673 37.5422L274.307 52.3443L42.9049 230.283L6.52878 184.036L237.941 6.09887ZM48.4833 231.96L59.9814 223.121L83.2501 226.032L71.742 234.87L48.4833 231.96Z" fill="#672393"/>
</svg>
