<svg width="334" height="240" viewBox="0 0 334 240" fill="none" xmlns="http://www.w3.org/2000/svg">
<g opacity="0.1">
<path d="M293.968 173.057C293.039 175.808 291.674 178.391 289.927 180.707C289.559 181.191 289.177 181.661 288.785 182.11C288.091 182.903 287.355 183.658 286.58 184.373C284.41 186.355 281.935 187.97 279.253 189.157C279.227 189.166 279.202 189.179 279.179 189.195L279.094 189.238C278.239 189.691 277.337 190.049 276.405 190.307C275.554 190.571 274.691 190.787 273.808 191.041C272.077 191.646 270.3 192.104 268.495 192.411C268.238 192.443 267.976 192.464 267.716 192.477L267.208 192.498C266.312 192.544 265.369 192.575 264.439 192.592C262.709 192.634 260.971 192.646 259.248 192.609C258.493 192.591 257.74 192.53 256.992 192.427C256.144 192.329 255.221 192.162 254.35 191.968C253.48 191.774 252.817 191.648 252.066 191.466L250.575 191.124L240.757 188.824L239.537 188.543L235.748 187.659L224.601 185.113L220.815 184.221L217.811 183.521L209.721 181.622L205.926 180.727L194.814 178.104C193.553 177.811 192.287 177.506 191.024 177.22L179.931 174.621C178.665 174.317 177.404 174.023 176.141 173.737C174.879 173.451 173.541 173.123 172.249 172.819L165.045 171.146L161.272 170.267L150.191 167.708L146.413 166.845C142.736 166.006 139.054 165.171 135.367 164.341C134.107 164.047 132.852 163.764 131.594 163.489L126.67 162.387L120.602 161.038L116.834 160.196L105.842 157.798L102.091 156.988C98.4383 156.199 94.785 155.421 91.1309 154.654L87.3556 153.863C85.1323 153.39 82.9038 152.933 80.6833 152.478L76.4332 151.604L72.7139 150.857C69.0899 150.115 65.4688 149.392 61.8424 148.685L58.1337 147.96C54.5207 147.266 50.9112 146.579 47.3053 145.899L43.6181 145.216C40.6656 144.657 37.7133 144.124 34.7609 143.591C34.1166 143.515 33.4827 143.407 32.8593 143.293C28.8975 142.521 25.164 140.857 21.9376 138.428C21.8357 138.351 21.7396 138.266 21.65 138.175L17.0338 133.6C16.9407 133.511 16.8543 133.415 16.7751 133.313C14.017 129.713 12.2095 125.467 11.5201 120.97C11.5011 120.837 11.4915 120.704 11.4912 120.57L11.4085 113.665C11.4371 113.576 11.41 113.47 11.4227 113.377C11.5546 111.904 11.8383 110.448 12.2691 109.033C12.6514 107.778 13.1574 106.565 13.7796 105.41C14.1134 104.798 14.4756 104.197 14.8661 103.609C14.9025 103.497 14.9999 103.386 15.0628 103.274C16.1189 101.005 17.5933 98.9565 19.4077 97.2379C20.0797 96.6071 20.7886 96.0172 21.5305 95.4715L21.7599 95.28C24.0173 93.3823 26.6611 92.0067 29.5029 91.2513C29.868 91.157 30.2305 91.0708 30.6089 90.9898L30.9793 90.8795C31.4605 90.6988 31.9657 90.5526 32.4126 90.3962C35.3307 89.552 38.3966 89.3721 41.387 89.8697C41.5861 89.9344 41.8009 89.9509 41.9998 89.9889L45.6843 90.6529L56.4754 92.6662L60.1812 93.3726C63.674 94.0394 67.166 94.7178 70.6571 95.4077C70.7727 95.4281 70.8897 95.4394 71.0071 95.4415C71.5362 95.4765 72.0642 95.3523 72.5242 95.0849C72.9841 94.8174 73.355 94.4188 73.5898 93.9396C73.604 93.9089 73.6145 93.8766 73.621 93.8434C74.7241 91.6299 75.9482 89.4792 77.2878 87.4013C77.4322 87.1734 77.5607 86.9402 77.7185 86.7255C77.9449 86.3944 78.1917 86.0777 78.4575 85.7776C78.6128 85.5975 78.776 85.42 78.9419 85.2345C79.6343 84.4575 80.3744 83.6961 81.1199 82.9453C82.0392 82.0115 82.9878 81.0961 83.9073 80.189C84.1892 79.917 84.4606 79.6506 84.7559 79.3918C85.334 78.8937 85.9467 78.4379 86.5895 78.0279L87.9622 77.1349C88.8017 76.6096 89.6465 76.0683 90.5074 75.5588C91.7114 74.8327 92.9395 74.141 94.1892 73.5183C95.5535 72.8594 96.966 72.3072 98.414 71.8668C99.3926 71.564 100.363 71.2852 101.324 71.0384L104.271 70.2843C106.201 69.7933 108.168 69.468 110.151 69.3117L110.223 69.335C111.303 69.2602 112.381 69.1935 113.465 69.1641C116.019 69.1066 118.6 69.1022 121.152 69.1593C121.791 69.1716 122.424 69.1999 123.065 69.2308C123.141 69.2399 123.217 69.2409 123.293 69.2339C123.783 69.2188 124.26 69.0694 124.673 68.8019C125.086 68.5343 125.418 68.1587 125.635 67.7157C125.661 67.6355 125.687 67.5553 125.713 67.4751C127.212 64.5126 129.127 61.7814 131.4 59.3662C132.105 58.6024 132.854 57.8702 133.621 57.1618C135.817 55.1803 138.21 53.4321 140.763 51.9453C141.616 51.4332 142.49 50.9635 143.383 50.5176C145.824 49.2856 148.367 48.2688 150.981 47.4789L151.539 47.3055C152.515 47.0106 153.489 46.7238 154.465 46.429C157.317 45.5368 160.221 44.8244 163.16 44.2959C164.041 44.1565 164.936 44.0303 165.834 43.9494C165.987 43.9372 166.152 43.9196 166.311 43.918C169.503 43.6162 172.71 43.4997 175.914 43.5691C177.059 43.595 178.204 43.6475 179.338 43.7321C180.001 43.7788 180.651 43.8389 181.306 43.9097C185.971 44.4694 190.405 46.2477 194.166 49.0678L194.464 49.3153L196.114 50.9588L199.078 53.8975C199.167 53.9878 199.25 54.083 199.329 54.1828C200.82 56.123 202.04 58.2606 202.953 60.5362C203.108 60.9245 203.352 61.2705 203.665 61.546C203.977 61.8215 204.351 62.0189 204.754 62.1223C206.248 62.5097 207.745 62.9158 209.234 63.3193C210.383 63.6302 211.524 63.9652 212.661 64.3429C214.015 64.7823 215.345 65.2673 216.665 65.8111L216.769 65.8447C219.095 66.8004 221.362 67.8972 223.555 69.1289C225.794 70.3696 227.987 71.5867 230.167 72.8972C231.864 73.9088 233.526 74.9714 235.139 76.1064L236.019 76.7557C238.075 78.2683 240.032 79.9103 241.88 81.6719C245.452 84.951 248.818 88.4502 251.958 92.1496C257.669 99.1536 259.087 109.187 256.161 117.687C256.007 118.16 255.854 118.633 255.637 119.086C255.419 119.538 255.276 119.926 255.082 120.333C254.885 120.746 254.797 121.203 254.827 121.66V121.66C254.849 122.026 254.946 122.383 255.111 122.71C255.276 123.036 255.506 123.325 255.787 123.558V123.558C255.925 123.681 256.076 123.787 256.24 123.873C257.639 124.605 259.031 125.353 260.415 126.115C265.309 128.791 270.057 131.726 274.64 134.907C276.45 136.168 278.206 137.483 279.974 138.846C281.741 140.208 283.227 141.462 284.833 142.861C288.569 145.708 291.494 149.493 293.316 153.839C295.139 158.185 295.795 162.94 295.219 167.63C295.179 167.972 295.12 168.316 295.066 168.644C294.828 170.144 294.461 171.621 293.968 173.057Z" fill="white"/>
<path d="M134.198 164.821C132.939 164.529 131.682 164.256 130.429 163.975L87.1403 76.8171C87.9767 76.2715 88.8237 75.7203 89.6867 75.2013L134.198 164.821Z" fill="#0000FF"/>
<path d="M150.219 167.237L146.391 166.358L97.4034 71.0839C98.3928 70.7847 99.3743 70.5096 100.345 70.2665L150.219 167.237Z" fill="#0000FF"/>
<path d="M165.419 172.183L161.571 171.285L109.339 68.8289C110.43 68.7517 111.534 68.6969 112.651 68.6645L165.419 172.183Z" fill="#0000FF"/>
<path d="M178.908 173.77C177.667 173.473 176.415 173.181 175.169 172.9L123.272 69.0483C123.757 69.0326 124.23 68.8821 124.639 68.6133C125.048 68.3444 125.377 67.9676 125.59 67.5239C125.614 67.452 125.64 67.3722 125.665 67.2923L178.908 173.77Z" fill="#0000FF"/>
<path d="M194.11 178.705L190.361 177.831L131.517 60.9025C132.216 60.144 132.957 59.4167 133.717 58.7131L194.11 178.705Z" fill="#0000FF"/>
<path d="M210.133 181.116L206.305 180.208L140.061 51.8407C140.918 51.3358 141.807 50.8678 142.694 50.4342L210.133 181.116Z" fill="#0000FF"/>
<path d="M225.34 186.037L221.546 185.155L152.783 47.1592L155.711 46.2649L225.34 186.037Z" fill="#0000FF"/>
<path d="M238.829 187.624L235.038 186.736L162.159 44.1595C163.042 44.0155 163.934 43.9005 164.832 43.8225L165.303 43.7821L238.829 187.624Z" fill="#0000FF"/>
<path d="M254.04 192.535C253.277 192.375 252.519 192.199 251.769 192.026L250.284 191.685L175.785 45.3252C176.924 45.3526 178.064 45.4065 179.193 45.4921L254.04 192.535Z" fill="#0000FF"/>
<path d="M267.773 193.372L267.249 193.39C266.341 193.435 265.376 193.463 264.441 193.482L189.552 46.0562C190.778 46.7119 191.954 47.4587 193.069 48.2904L193.372 48.541L195.047 50.2042L267.773 193.372Z" fill="#0000FF"/>
<path d="M277.264 190.016L277.18 190.06C276.328 190.519 275.431 190.885 274.505 191.152L211.604 64.4061C212.95 64.8432 214.281 65.3288 215.577 65.8659L215.688 65.9019L277.264 190.016Z" fill="#0000FF"/>
<path d="M235.834 76.7296L255.534 118.9C255.376 119.387 255.218 119.874 254.998 120.341C254.778 120.808 254.631 121.208 254.436 121.628C254.236 122.054 254.142 122.524 254.164 122.99L231.053 73.517C232.688 74.5403 234.317 75.6074 235.834 76.7296Z" fill="#0000FF"/>
<path d="M288.421 181.526C287.742 182.314 287.022 183.065 286.265 183.776L256.735 123.825C256.868 123.946 257.015 124.05 257.173 124.134C258.53 124.849 259.878 125.58 261.219 126.325L288.421 181.526Z" fill="#0000FF"/>
<path d="M294.195 172.36L275.363 135.468C277.134 136.692 278.863 137.963 280.552 139.281L295.254 168.069C295.024 169.527 294.67 170.962 294.195 172.36Z" fill="#0000FF"/>
<path d="M121.527 160.712L117.716 159.849L78.6379 85.7538C79.3409 84.9914 80.0738 84.2473 80.8202 83.5163L121.527 160.712Z" fill="#0000FF"/>
<path d="M105.512 158.282L101.699 157.448L69.6475 96.1949C70.1843 96.2328 70.7185 96.1136 71.1826 95.8522C71.6467 95.5909 72.02 95.1993 72.2551 94.7267L105.512 158.282Z" fill="#0000FF"/>
<path d="M90.3201 153.314L86.6629 152.568L56.6948 92.9584L60.2951 93.6429L90.3201 153.314Z" fill="#0000FF"/>
<path d="M76.8318 151.723L73.0144 150.936L40.6585 90.589L44.4389 91.2948L76.8318 151.723Z" fill="#0000FF"/>
<path d="M60.821 149.277L57.1399 148.582L29.316 91.0179C29.6791 90.9179 30.0422 90.8179 30.4079 90.7368C30.5353 90.7069 30.661 90.6689 30.7842 90.6229C31.2633 90.4335 31.766 90.2789 32.216 90.1254L60.821 149.277Z" fill="#0000FF"/>
<path d="M48.1531 145.161L44.3804 144.44L19.0049 96.8991C19.6786 96.2827 20.3946 95.7111 21.1484 95.1883C21.2229 95.1256 21.2974 95.0628 21.38 95.0028L48.1531 145.161Z" fill="#0000FF"/>
<path d="M32.0417 143.026C30.7674 142.781 29.5135 142.44 28.2905 142.006L11.9808 109.923C12.3503 108.709 12.8403 107.534 13.4432 106.417L32.0417 143.026Z" fill="#0000FF"/>
</g>
</svg>
